<svg xmlns="http://www.w3.org/2000/svg" xmlns:xlink="http://www.w3.org/1999/xlink" style="fill-rule:nonzero;clip-rule:evenodd;stroke-linecap:round;stroke-linejoin:round" width="100%" height="100%" stroke-miterlimit="10" version="1.1" viewBox="0 0 375 375" xml:space="preserve"><g id="Untitled"><path fill="#dadafe" fill-rule="nonzero" stroke="none" d="M187.5 375C291.348 375 375 291.348 375 187.5C375 83.6523 291.348 0 187.5 0C84.6172 5.68434e-14-5.68434e-14 83.6523 0 187.5C0 291.348 84.6172 375 187.5 375ZM187.5 28.8477C275 28.8477 346.152 100 346.152 187.5C346.152 275 275 346.152 187.5 346.152C100 346.152 28.8477 275 28.8477 187.5C28.8477 100 100 28.8477 187.5 28.8477Z" opacity="1"/><path fill="#fef7e5" fill-rule="nonzero" stroke="none" d="M187.5 346.152C275 346.152 346.152 275 346.152 187.5C346.152 100 275 28.8477 187.5 28.8477C100 28.8477 28.8477 100 28.8477 187.5C28.8477 275 100 346.152 187.5 346.152Z" opacity="1"/><g opacity="1"><clipPath id="ClipPath"><path d="M237 186L195 186L195 70L237 70L237 186Z"/></clipPath><g clip-path="url(#ClipPath)"><clipPath id="ClipPath_2"><path d="M107.492 72.7891L262.711 69.6055L267.477 302.059L112.258 305.238L107.492 72.7891Z"/></clipPath><g clip-path="url(#ClipPath_2)"><clipPath id="ClipPath_3"><path d="M107.492 72.7891L262.711 69.6055L267.477 302.059L112.258 305.238L107.492 72.7891Z"/></clipPath><g clip-path="url(#ClipPath_3)"><path fill="#dadafe" fill-rule="nonzero" stroke="none" d="M234.512 70.1836C233.84 71.9961 233.34 73.875 233.02 75.7812C232.562 78.5273 232.484 81.3203 232.414 84.1016C231.949 103.438 232.02 122.781 232.633 142.109C232.922 151.348 233.367 160.738 236.414 169.465C223.777 171.813 211.746 177.371 201.773 185.477C200.547 184.418 200.422 182.594 200.391 180.973C199.906 156.859 199.422 132.746 198.937 108.629C198.687 96.1602 198.426 83.582 195.641 71.4219C208.363 74.7188 222.027 74.2812 234.512 70.1836Z" opacity="1"/></g></g></g></g><g opacity="1"><clipPath id="ClipPath_4"><path d="M178 187L136 187L136 71L178 71L178 187Z"/></clipPath><g clip-path="url(#ClipPath_4)"><clipPath id="ClipPath_5"><path d="M107.492 72.7891L262.711 69.6055L267.477 302.059L112.258 305.238L107.492 72.7891Z"/></clipPath><g clip-path="url(#ClipPath_5)"><clipPath id="ClipPath_6"><path d="M107.492 72.7891L262.711 69.6055L267.477 302.059L112.258 305.238L107.492 72.7891Z"/></clipPath><g clip-path="url(#ClipPath_6)"><path fill="#dadafe" fill-rule="nonzero" stroke="none" d="M175.535 71.5391C172.816 83.832 173.027 96.5625 173.25 109.148C173.437 119.859 173.629 130.57 173.816 141.281C173.992 151.242 174.215 161.441 177.805 170.738C165.668 172.727 154.09 178.004 144.625 185.855C143.957 186.41 142.863 186.02 142.383 185.293C141.902 184.566 141.871 183.645 141.852 182.773C141.309 158.246 140.766 133.719 140.227 109.191C140.098 103.434 139.973 97.6719 139.547 91.9258C139.07 85.4258 138.211 78.9531 136.984 72.5547C149.566 75.9766 163.152 75.6172 175.535 71.5391Z" opacity="1"/></g></g></g></g><g opacity="1"><clipPath id="ClipPath_7"><path d="M267 304L110 304L110 234L267 234L267 304Z"/></clipPath><g clip-path="url(#ClipPath_7)"><clipPath id="ClipPath_8"><path d="M107.492 72.7891L262.711 69.6055L267.477 302.059L112.258 305.238L107.492 72.7891Z"/></clipPath><g clip-path="url(#ClipPath_8)"><clipPath id="ClipPath_9"><path d="M107.492 72.7891L262.711 69.6055L267.477 302.059L112.258 305.238L107.492 72.7891Z"/></clipPath><g clip-path="url(#ClipPath_9)"><path fill="#dadafe" fill-rule="nonzero" stroke="none" d="M112.047 234.883C112.922 235.391 113.141 236.531 113.312 237.527C115.688 251.059 126.211 262.133 138.543 268.199C150.879 274.266 164.875 275.992 178.609 276.605C191.195 277.168 203.91 276.859 216.23 274.219C228.547 271.574 240.512 266.5 250.094 258.32C257.148 252.301 263.043 244.023 263.273 234.754C263.887 233.988 265.238 234.363 265.742 235.211C266.242 236.055 266.145 237.113 266.008 238.086C262.117 266.434 240.461 291.312 213.195 300.02C185.926 308.723 154.375 301.328 133.145 282.141C120.484 270.703 111.184 254.695 110.895 237.645C110.875 236.578 111.051 235.262 112.047 234.883Z" opacity="1"/></g></g></g></g><g opacity="1"><clipPath id="ClipPath_10"><path d="M236 240L198 240L198 205L236 205L236 240Z"/></clipPath><g clip-path="url(#ClipPath_10)"><clipPath id="ClipPath_11"><path d="M107.492 72.7891L262.711 69.6055L267.477 302.059L112.258 305.238L107.492 72.7891Z"/></clipPath><g clip-path="url(#ClipPath_11)"><clipPath id="ClipPath_12"><path d="M107.492 72.7891L262.711 69.6055L267.477 302.059L112.258 305.238L107.492 72.7891Z"/></clipPath><g clip-path="url(#ClipPath_12)"><path fill="#dadafe" fill-rule="nonzero" stroke="none" d="M219.973 239.23C212.211 240.457 203.625 236.516 200.371 229.367C199.582 227.629 199.105 225.754 198.965 223.855C198.496 217.391 202.223 210.934 207.828 207.676C212.691 204.848 218.852 204.352 224.105 206.367C231.141 209.066 236.23 216.598 235.383 224.078C234.512 231.766 227.617 238.023 219.973 239.23Z" opacity="1"/></g></g></g></g><g opacity="1"><clipPath id="ClipPath_13"><path d="M177 241L140 241L140 206L177 206L177 241Z"/></clipPath><g clip-path="url(#ClipPath_13)"><clipPath id="ClipPath_14"><path d="M107.492 72.7891L262.711 69.6055L267.477 302.059L112.258 305.238L107.492 72.7891Z"/></clipPath><g clip-path="url(#ClipPath_14)"><clipPath id="ClipPath_15"><path d="M107.492 72.7891L262.711 69.6055L267.477 302.059L112.258 305.238L107.492 72.7891Z"/></clipPath><g clip-path="url(#ClipPath_15)"><path fill="#dadafe" fill-rule="nonzero" stroke="none" d="M140.246 221.215C141.043 215.773 144.844 210.977 149.754 208.488C155.754 205.453 163.352 205.84 169.008 209.473C171.5 211.074 173.629 213.27 174.988 215.895C178.266 222.23 176.43 230.555 171.305 235.516C165.328 241.293 155.316 242.324 148.285 237.887C142.766 234.402 139.301 227.672 140.246 221.215Z" opacity="1"/></g></g></g></g></g></svg>